<svg width="64" height="64" viewBox="0 0 64 64" fill="none" xmlns="http://www.w3.org/2000/svg">
  <!-- Background circle with gradient -->
  <defs>
    <linearGradient id="bgGradient" x1="0%" y1="0%" x2="100%" y2="100%">
      <stop offset="0%" style="stop-color:#3B82F6;stop-opacity:1" />
      <stop offset="100%" style="stop-color:#1E40AF;stop-opacity:1" />
    </linearGradient>
    <linearGradient id="shieldGradient" x1="0%" y1="0%" x2="100%" y2="100%">
      <stop offset="0%" style="stop-color:#FFFFFF;stop-opacity:1" />
      <stop offset="100%" style="stop-color:#E5E7EB;stop-opacity:1" />
    </linearGradient>
  </defs>
  
  <!-- Background circle -->
  <circle cx="32" cy="32" r="30" fill="url(#bgGradient)" stroke="#1E40AF" stroke-width="2"/>
  
  <!-- Shield shape -->
  <path d="M32 12 L44 18 L44 30 C44 40 32 50 32 50 C32 50 20 40 20 30 L20 18 Z" fill="url(#shieldGradient)" stroke="#1E40AF" stroke-width="1.5"/>
  
  <!-- Lock icon inside shield -->
  <rect x="28" y="26" width="8" height="6" rx="1" fill="#1E40AF"/>
  <path d="M30 26 L30 22 C30 20.5 31.5 19 32 19 C32.5 19 34 20.5 34 22 L34 26" stroke="#1E40AF" stroke-width="1.5" fill="none"/>
  
  <!-- Options chart lines -->
  <path d="M16 40 L20 36 L24 40 L28 36 L32 40 L36 36 L40 40 L44 36" stroke="#3B82F6" stroke-width="2" fill="none" opacity="0.7"/>
  <path d="M16 44 L20 48 L24 44 L28 48 L32 44 L36 48 L40 44 L44 48" stroke="#3B82F6" stroke-width="2" fill="none" opacity="0.7"/>
</svg>
